<svg width="20" height="20" viewBox="0 0 20 20" fill="none" xmlns="http://www.w3.org/2000/svg">
<path d="M10 12.2917C9.65833 12.2917 9.375 12.0083 9.375 11.6667V7.5C9.375 7.15833 9.65833 6.875 10 6.875C10.3417 6.875 10.625 7.15833 10.625 7.5V11.6667C10.625 12.0083 10.3417 12.2917 10 12.2917Z" fill="#FF5630"/>
<path d="M9.99984 15.0008C9.94984 15.0008 9.8915 14.9924 9.83317 14.9841C9.78317 14.9758 9.73317 14.9591 9.68317 14.9341C9.63317 14.9174 9.58317 14.8924 9.53317 14.8591C9.4915 14.8258 9.44984 14.7924 9.40817 14.7591C9.25817 14.6008 9.1665 14.3841 9.1665 14.1674C9.1665 13.9508 9.25817 13.7341 9.40817 13.5758C9.44984 13.5424 9.4915 13.5091 9.53317 13.4758C9.58317 13.4424 9.63317 13.4174 9.68317 13.4008C9.73317 13.3758 9.78317 13.3591 9.83317 13.3508C9.9415 13.3258 10.0582 13.3258 10.1582 13.3508C10.2165 13.3591 10.2665 13.3758 10.3165 13.4008C10.3665 13.4174 10.4165 13.4424 10.4665 13.4758C10.5082 13.5091 10.5498 13.5424 10.5915 13.5758C10.7415 13.7341 10.8332 13.9508 10.8332 14.1674C10.8332 14.3841 10.7415 14.6008 10.5915 14.7591C10.5498 14.7924 10.5082 14.8258 10.4665 14.8591C10.4165 14.8924 10.3665 14.9174 10.3165 14.9341C10.2665 14.9591 10.2165 14.9758 10.1582 14.9841C10.1082 14.9924 10.0498 15.0008 9.99984 15.0008Z" fill="#FF5630"/>
<path d="M15.0502 18.4665H4.95022C3.32522 18.4665 2.08356 17.8749 1.45022 16.8082C0.825224 15.7415 0.908557 14.3665 1.70022 12.9415L6.75022 3.8582C7.58356 2.3582 8.73356 1.5332 10.0002 1.5332C11.2669 1.5332 12.4169 2.3582 13.2502 3.8582L18.3002 12.9499C19.0919 14.3749 19.1836 15.7415 18.5502 16.8165C17.9169 17.8749 16.6752 18.4665 15.0502 18.4665ZM10.0002 2.7832C9.21689 2.7832 8.45022 3.3832 7.84189 4.46654L2.80022 13.5582C2.23356 14.5749 2.14189 15.5082 2.53356 16.1832C2.92522 16.8582 3.79189 17.2249 4.95856 17.2249H15.0586C16.2252 17.2249 17.0836 16.8582 17.4836 16.1832C17.8836 15.5082 17.7836 14.5832 17.2169 13.5582L12.1586 4.46654C11.5502 3.3832 10.7836 2.7832 10.0002 2.7832Z" fill="#FF5630"/>
</svg>
