<svg width="64" height="64" viewBox="0 0 64 64" fill="none" xmlns="http://www.w3.org/2000/svg">
<rect x="0.5" y="0.5" width="63" height="63" rx="7.5" fill="#B1B5C4"/>
<rect x="0.5" y="0.5" width="63" height="63" rx="7.5" stroke="#B1B5C4" stroke-dasharray="2 2"/>
<path d="M44.4136 24.2855H45.5772C45.733 24.2912 45.8869 24.2495 46.0186 24.166C46.1503 24.0825 46.2536 23.961 46.3148 23.8176C46.3761 23.6742 46.3925 23.5156 46.3618 23.3627C46.3311 23.2098 46.2548 23.0698 46.1429 22.9612L38.48 15.3176C38.3734 15.2024 38.2341 15.1225 38.0808 15.0886C37.9275 15.0546 37.7675 15.0682 37.6222 15.1276C37.4769 15.187 37.3531 15.2894 37.2675 15.4209C37.1818 15.5525 37.1384 15.7071 37.1429 15.864V17.0276C37.1429 17.9818 37.3311 18.9267 37.6966 19.8081C38.0621 20.6895 38.5979 21.4901 39.2732 22.1643C39.9485 22.8384 40.7502 23.3727 41.6322 23.7367C42.5143 24.1007 43.4594 24.2872 44.4136 24.2855Z" fill="white"/>
<path d="M33.7742 32.0839C33.5681 31.8369 33.3058 31.6429 33.0092 31.5182C32.618 31.3676 32.2004 31.2977 31.7814 31.3125H30.9457V36.8346H31.8071C32.1959 36.8465 32.5836 36.7877 32.9514 36.6611C33.2508 36.5503 33.5181 36.367 33.7292 36.1275C33.9505 35.8621 34.1087 35.55 34.1921 35.2146C34.301 34.8146 34.3529 34.4013 34.3464 33.9868C34.3493 33.6245 34.3039 33.2635 34.2114 32.9132C34.1243 32.6097 33.9755 32.3273 33.7742 32.0839Z" fill="white"/>
<path d="M44.4136 26.8572C43.1217 26.8588 41.8421 26.6059 40.6481 26.1126C39.4541 25.6194 38.369 24.8957 37.4549 23.9828C36.5408 23.0699 35.8156 21.9857 35.3209 20.7923C34.8261 19.599 34.5714 18.3198 34.5714 17.0279C34.5714 16.2271 34.2542 15.4588 33.6891 14.8914C33.1241 14.3239 32.3572 14.0034 31.5564 14H23.8421C22.8879 13.9983 21.9428 14.1848 21.0607 14.5488C20.1787 14.9128 19.377 15.4471 18.7017 16.1212C18.0264 16.7954 17.4907 17.596 17.1251 18.4774C16.7596 19.3588 16.5714 20.3037 16.5714 21.2579V42.7422C16.5714 43.6964 16.7596 44.6412 17.1251 45.5226C17.4907 46.404 18.0264 47.2047 18.7017 47.8788C19.377 48.5529 20.1787 49.0873 21.0607 49.4512C21.9428 49.8152 22.8879 50.0017 23.8421 50H40.19C42.1115 49.9949 43.9527 49.228 45.3096 47.8674C46.6665 46.5069 47.4286 44.6637 47.4286 42.7422V29.885C47.4286 29.0842 47.1113 28.316 46.5463 27.7485C45.9812 27.1811 45.2144 26.8606 44.4136 26.8572ZM27.8086 33.6972C27.6677 34.0397 27.4473 34.3438 27.1657 34.5843C26.8736 34.8351 26.5319 35.0213 26.1628 35.1307C25.71 35.2635 25.2396 35.3264 24.7678 35.3172H24.1121V37.8886C24.1137 37.9306 24.1 37.9717 24.0736 38.0043C24.0375 38.0445 23.9906 38.0735 23.9386 38.0879C23.8569 38.1133 23.7729 38.1305 23.6878 38.1393C23.4206 38.1646 23.1515 38.1646 22.8843 38.1393C22.797 38.131 22.7109 38.1137 22.6271 38.0879C22.5746 38.0746 22.5275 38.0454 22.4921 38.0043C22.4662 37.9714 22.4526 37.9305 22.4536 37.8886V30.605C22.4472 30.5244 22.4577 30.4434 22.4842 30.3671C22.5108 30.2907 22.5529 30.2207 22.6078 30.1614C22.718 30.0606 22.8636 30.0075 23.0128 30.0136H24.9414C25.1343 30.0136 25.3164 30.0136 25.4878 30.0136C25.7037 30.0341 25.9183 30.0663 26.1307 30.11C26.3887 30.1645 26.6376 30.2555 26.87 30.38C27.113 30.5038 27.331 30.6717 27.5128 30.875C27.6922 31.0776 27.8298 31.3135 27.9178 31.5693C28.0122 31.8576 28.0579 32.1596 28.0528 32.4629C28.0535 32.8864 27.9705 33.3058 27.8086 33.6972ZM35.7607 35.8572C35.5899 36.3469 35.3032 36.788 34.925 37.1429C34.5439 37.488 34.0886 37.7409 33.5943 37.8822C32.9876 38.0514 32.3597 38.1315 31.73 38.12H29.8014C29.6746 38.1235 29.551 38.08 29.4543 37.9979C29.4031 37.9458 29.3639 37.8831 29.3395 37.8142C29.3151 37.7454 29.306 37.672 29.3128 37.5993V30.5279C29.306 30.4551 29.3151 30.3818 29.3395 30.3129C29.3639 30.2441 29.4031 30.1814 29.4543 30.1293C29.551 30.0472 29.6746 30.0037 29.8014 30.0072H31.8843C32.5091 29.9934 33.132 30.0803 33.7293 30.2643C34.209 30.4149 34.6486 30.672 35.015 31.0164C35.3701 31.3615 35.6407 31.7839 35.8057 32.2507C35.9835 32.7917 36.0662 33.3594 36.05 33.9286C36.0681 34.5835 35.9701 35.2364 35.7607 35.8572ZM41.9514 30.9972C41.9447 31.0679 41.9274 31.1373 41.9 31.2029C41.8828 31.2465 41.8565 31.286 41.8228 31.3186C41.7948 31.3442 41.758 31.358 41.72 31.3572H39.0714V33.5429H41.5657C41.5991 33.5321 41.6351 33.5321 41.6686 33.5429C41.7032 33.5721 41.7298 33.6097 41.7457 33.6522C41.7726 33.7157 41.7899 33.7828 41.7971 33.8514C41.8191 34.0652 41.8191 34.2806 41.7971 34.4943C41.7894 34.5649 41.7721 34.6341 41.7457 34.7C41.73 34.7444 41.7035 34.7842 41.6686 34.8157C41.6393 34.8385 41.6027 34.8499 41.5657 34.8479H39.0714V37.8757C39.0728 37.9196 39.0592 37.9627 39.0328 37.9979C38.997 38.0383 38.95 38.0674 38.8978 38.0814C38.8143 38.1079 38.728 38.1252 38.6407 38.1329C38.3734 38.1582 38.1044 38.1582 37.8371 38.1329C37.7497 38.1256 37.6634 38.1084 37.58 38.0814C37.5283 38.0661 37.4817 38.0373 37.445 37.9979C37.4176 37.9633 37.4039 37.9198 37.4064 37.8757V30.5407C37.3995 30.468 37.4086 30.3946 37.4331 30.3258C37.4575 30.257 37.4967 30.1943 37.5478 30.1422C37.6445 30.06 37.7682 30.0165 37.895 30.02H41.72C41.7569 30.0186 41.7933 30.0299 41.8228 30.0522C41.8576 30.0839 41.8841 30.1236 41.9 30.1679C41.9273 30.2357 41.9446 30.3072 41.9514 30.38C41.9576 30.4871 41.9576 30.5944 41.9514 30.7014C41.9573 30.8042 41.9573 30.9072 41.9514 31.01V30.9972Z" fill="white"/>
<path d="M25.7772 31.4914C25.6333 31.4164 25.476 31.3706 25.3143 31.3564C25.1481 31.334 24.9806 31.3233 24.8129 31.3243H24.1122V34.0821H24.8515C25.0707 34.0856 25.2886 34.0485 25.4943 33.9729C25.6614 33.9103 25.8113 33.809 25.9315 33.6771C26.0476 33.5443 26.1351 33.3889 26.1886 33.2207C26.2493 33.0339 26.2797 32.8386 26.2786 32.6421C26.2883 32.3999 26.2375 32.1591 26.1308 31.9414C26.0572 31.7614 25.9348 31.6055 25.7772 31.4914Z" fill="white"/>
</svg>
