<svg width="20" height="20" viewBox="0 0 20 20" fill="none" xmlns="http://www.w3.org/2000/svg">
<path d="M16.1833 9.79102H13.3333C12.9916 9.79102 12.7083 9.50768 12.7083 9.16602V3.34101C12.7083 2.72435 12.9499 2.14935 13.3833 1.71602C13.8166 1.28268 14.3916 1.04102 15.0083 1.04102H15.0166C16.0583 1.04935 17.0416 1.45768 17.7916 2.19935C18.5416 2.95768 18.9499 3.95768 18.9499 4.99935V7.01601C18.9583 8.67435 17.8416 9.79102 16.1833 9.79102ZM13.9583 8.54102H16.1833C17.1499 8.54102 17.7083 7.98268 17.7083 7.01601V4.99935C17.7083 4.28268 17.4249 3.59935 16.9166 3.08268C16.4083 2.58268 15.7249 2.29935 15.0166 2.29102C15.0166 2.29102 15.0166 2.29102 15.0083 2.29102C14.7333 2.29102 14.4666 2.39935 14.2666 2.59935C14.0666 2.79935 13.9583 3.05768 13.9583 3.34101V8.54102Z" fill="#FF5630"/>
<path d="M7.50008 19.441C7.10841 19.441 6.74175 19.291 6.46675 19.0077L5.08341 17.616C5.00841 17.541 4.89175 17.5327 4.80841 17.5993L3.37508 18.666C2.93341 18.9993 2.35008 19.0577 1.85008 18.8077C1.35008 18.5577 1.04175 18.0577 1.04175 17.4993V4.99935C1.04175 2.48268 2.48341 1.04102 5.00008 1.04102H15.0001C15.3417 1.04102 15.6251 1.32435 15.6251 1.66602C15.6251 2.00768 15.3417 2.29102 15.0001 2.29102C14.4251 2.29102 13.9584 2.75768 13.9584 3.33268V17.4993C13.9584 18.0577 13.6501 18.5577 13.1501 18.8077C12.6501 19.0577 12.0667 19.0077 11.6251 18.6744L10.2001 17.6077C10.1167 17.541 10.0001 17.5577 9.93341 17.6243L8.53341 19.0243C8.25841 19.291 7.89175 19.441 7.50008 19.441ZM4.92508 16.3077C5.30841 16.3077 5.68341 16.4493 5.96675 16.741L7.35008 18.1327C7.40008 18.1827 7.46675 18.191 7.50008 18.191C7.53341 18.191 7.60008 18.1827 7.65008 18.1327L9.05008 16.7327C9.56675 16.216 10.3834 16.166 10.9584 16.6077L12.3751 17.666C12.4667 17.7327 12.5501 17.7077 12.5917 17.6827C12.6334 17.6577 12.7084 17.6077 12.7084 17.4993V3.33268C12.7084 2.95768 12.8001 2.59935 12.9584 2.29102H5.00008C3.15008 2.29102 2.29175 3.14935 2.29175 4.99935V17.4993C2.29175 17.616 2.36675 17.666 2.40841 17.691C2.45841 17.716 2.54175 17.7327 2.62508 17.666L4.05008 16.5993C4.30841 16.4077 4.61675 16.3077 4.92508 16.3077Z" fill="#FF5630"/>
<path d="M10 11.4668H7.5C7.15833 11.4668 6.875 11.1835 6.875 10.8418C6.875 10.5001 7.15833 10.2168 7.5 10.2168H10C10.3417 10.2168 10.625 10.5001 10.625 10.8418C10.625 11.1835 10.3417 11.4668 10 11.4668Z" fill="#FF5630"/>
<path d="M10 8.13281H7.5C7.15833 8.13281 6.875 7.84948 6.875 7.50781C6.875 7.16615 7.15833 6.88281 7.5 6.88281H10C10.3417 6.88281 10.625 7.16615 10.625 7.50781C10.625 7.84948 10.3417 8.13281 10 8.13281Z" fill="#FF5630"/>
<path d="M4.97518 8.34245C4.51685 8.34245 4.14185 7.96745 4.14185 7.50911C4.14185 7.05078 4.51685 6.67578 4.97518 6.67578C5.43351 6.67578 5.80851 7.05078 5.80851 7.50911C5.80851 7.96745 5.43351 8.34245 4.97518 8.34245Z" fill="#FF5630"/>
<path d="M4.97518 11.6745C4.51685 11.6745 4.14185 11.2995 4.14185 10.8411C4.14185 10.3828 4.51685 10.0078 4.97518 10.0078C5.43351 10.0078 5.80851 10.3828 5.80851 10.8411C5.80851 11.2995 5.43351 11.6745 4.97518 11.6745Z" fill="#FF5630"/>
</svg>
