<svg width="25" height="24" viewBox="0 0 25 24" fill="none" xmlns="http://www.w3.org/2000/svg">
<g id="Capa_1" clip-path="url(#clip0_3295_274405)">
<g id="Group">
<g id="Group_2">
<path id="Vector" d="M19.2528 20.7306H15.3737H14.3292H14.1036V15.5275H15.8053C16.2368 15.5275 16.4918 15.0371 16.2368 14.684L12.9266 10.1037C12.7158 9.80947 12.2793 9.80947 12.0685 10.1037L8.75828 14.684C8.50327 15.0371 8.75337 15.5275 9.18982 15.5275H10.8915V20.7306H10.6659H9.62137H5.12444C2.54986 20.5884 0.5 18.1805 0.5 15.5716C0.5 13.7719 1.47589 12.2026 2.92256 11.3542C2.79015 10.9962 2.7215 10.6137 2.7215 10.2116C2.7215 8.3726 4.2074 6.8867 6.04638 6.8867C6.4436 6.8867 6.82611 6.95536 7.1841 7.08777C8.24826 4.83194 10.5433 3.26758 13.2111 3.26758C16.6635 3.27248 19.5078 5.91572 19.8314 9.28474C22.4845 9.74081 24.5 12.1977 24.5 14.9782C24.5 17.95 22.1853 20.5246 19.2528 20.7306Z" fill="#EAA321"/>
</g>
</g>
</g>
<defs>
<clipPath id="clip0_3295_274405">
<rect width="24" height="24" fill="white" transform="translate(0.5)"/>
</clipPath>
</defs>
</svg>
